<svg width="83" height="83" viewBox="0 0 83 83" fill="none" xmlns="http://www.w3.org/2000/svg">
<circle cx="41.5" cy="41.5" r="41.5" fill="#9DA1A1"/>
<path d="M52.4167 21.1665H31.5834C25.8304 21.1665 21.1667 25.8302 21.1667 31.5832V52.4165C21.1667 58.1695 25.8304 62.8332 31.5834 62.8332H52.4167C58.1697 62.8332 62.8334 58.1695 62.8334 52.4165V31.5832C62.8334 25.8302 58.1697 21.1665 52.4167 21.1665Z" stroke="white" stroke-width="2" stroke-linecap="round" stroke-linejoin="round"/>
<path d="M50.3333 40.6876C50.5904 42.4215 50.2943 44.1923 49.487 45.7481C48.6797 47.3039 47.4024 48.5656 45.8367 49.3536C44.271 50.1417 42.4967 50.416 40.7662 50.1375C39.0357 49.859 37.437 49.042 36.1976 47.8026C34.9581 46.5631 34.1411 44.9645 33.8626 43.2339C33.5842 41.5034 33.8584 39.7291 34.6465 38.1634C35.4345 36.5978 36.6962 35.3204 38.252 34.5131C39.8079 33.7059 41.5786 33.4097 43.3125 33.6668C45.0811 33.9291 46.7184 34.7532 47.9827 36.0174C49.2469 37.2817 50.0711 38.9191 50.3333 40.6876Z" stroke="white" stroke-width="2" stroke-linecap="round" stroke-linejoin="round"/>
<path d="M53.4583 30.5415H53.4791" stroke="white" stroke-width="2" stroke-linecap="round" stroke-linejoin="round"/>
</svg>
